# xmcd CD database file
#
# Track frame offsets:
#	150
#	21956
#	43984
#	62279
#	81360
#	106056
#	124465
#	147637
#	164655
#	193626
#	210195
#	232037
#	245646
#	263998
#	285514
#
# Disc length: 3989 seconds
#
# Revision: 0
# Processed by: cddbd v1.5.2PL0 Copyright (c) Steve Scherf et al.
# Submitted via: CDex 1.51
#
DISCID=e10f930f
DTITLE=Paul Rodgers - Muddy Waters Blues
DYEAR=1993
DGENRE=Blues
TTITLE0=Muddy Water Blues (Electric Version) - Paul Rodgers and Neal Schon
TTITLE1=Muddy Water Blues (Acoustic Version) - Paul Rodgers and Buddy Guy
TTITLE2=Louisiana Blues - Paul Rodgers and Trevor Rabin
TTITLE3=I Can't Be Satisfied - Paul Rodgers and Brian Setzer
TTITLE4=Rollin' Stone - Paul Rodgers and Jeff Beck
TTITLE5=Good Morning Little School Girl (Part 1) - Paul Rodgers and Jeff Beck
TTITLE6=I'm Your Hoochie Coochie Man - Paul Rodgers and Steve Miller
TTITLE7=She's Alright - Paul Rodgers and Trevor Rabin
TTITLE8=Standing Around Crying - Paul Rodgers and David Gilmour
TTITLE9=The Hunter -  Paul Rodgers and Slash
TTITLE10=She Moves Me - Paul Rodgers and Gary Moore
TTITLE11=I'm Ready - Paul Rodgers and Brian May
TTITLE12=I Just Want To Make Love To You - Paul Rodgers and Jeff Beck
TTITLE13=Born Under A Bad Sign - Paul Rodgers and Neal Schon
TTITLE14=Good Morning Little School Girl (Part 2) - Paul Rodgers and Richie Sambora
EXTD=YEAR: 1993
EXTT0=
EXTT1=
EXTT2=
EXTT3=
EXTT4=
EXTT5=
EXTT6=
EXTT7=
EXTT8=
EXTT9=
EXTT10=
EXTT11=
EXTT12=
EXTT13=
EXTT14=
PLAYORDER=
